<?xml version="1.0" encoding="utf-8"?>
<!-- Generator: Adobe Illustrator 17.0.2, SVG Export Plug-In . SVG Version: 6.00 Build 0)  -->
<!DOCTYPE svg PUBLIC "-//W3C//DTD SVG 1.1//EN" "http://www.w3.org/Graphics/SVG/1.1/DTD/svg11.dtd">
<svg version="1.1" id="Layer_1" xmlns="http://www.w3.org/2000/svg" xmlns:xlink="http://www.w3.org/1999/xlink" x="0px" y="0px"
	 width="32px" height="32px" viewBox="0 0 32 32" enable-background="new 0 0 32 32" xml:space="preserve">
<g>
	<path fill="#1C1C1C" d="M30,6h-8V4c0-1.105-0.895-2-2-2h-8c-1.105,0-2,0.895-2,2v2H2C0.895,6,0,6.895,0,8v20c0,1.105,0.895,2,2,2
		h28c1.105,0,2-0.895,2-2V8C32,6.895,31.105,6,30,6z M11,5c0-1.105,0.895-2,2-2h6c1.105,0,2,0.895,2,2v1H11V5z M3,29
		c-1.105,0-2-0.895-2-2V9c0-1.105,0.895-2,2-2h4v22H3z M8,29V7h2v22H8z M11,29V7h10v22H11z M22,29V7h2v22H22z M31,27
		c0,1.105-0.895,2-2,2h-4V7h4c1.105,0,2,0.895,2,2V27z"/>
	<path fill="#1C1C1C" d="M15,13c1.105,0,2-0.895,2-2c0-1.105-0.895-2-2-2s-2,0.895-2,2C13,12.105,13.895,13,15,13z M15,10
		c0.552,0,1,0.448,1,1c0,0.552-0.448,1-1,1s-1-0.448-1-1C14,10.448,14.448,10,15,10z"/>
	<path fill="#1C1C1C" d="M14,23c-1.105,0-2,0.895-2,2c0,1.105,0.895,2,2,2s2-0.895,2-2C16,23.895,15.105,23,14,23z M14,26
		c-0.552,0-1-0.448-1-1c0-0.552,0.448-1,1-1s1,0.448,1,1C15,25.552,14.552,26,14,26z"/>
	<path fill="#1C1C1C" d="M14,20h6v-4h-6V20z M15,17h4v2h-4V17z"/>
</g>
</svg>
